<?xml version="1.0" encoding="UTF-8"?>
<svg id="Ebene_1" data-name="Ebene 1" xmlns="http://www.w3.org/2000/svg" version="1.1" viewBox="0 0 499.84 480.2">
  <defs>
    <style>
      .cls-1 {
        fill: #bfa17c;
      }

      .cls-1, .cls-2, .cls-3 {
        stroke-width: 0px;
      }

      .cls-2 {
        fill: #cba883;
      }

      .cls-3 {
        fill: none;
      }
    </style>
  </defs>
  <polygon class="cls-3" points="282.61 152.56 293.51 174.36 271.71 130.77 282.61 152.56"/>
  <polygon class="cls-1" points="249.92 87.18 249.92 87.18 249.92 87.18 249.92 87.18"/>
  <polygon class="cls-2" points="295.93 130.77 295.93 130.77 317.72 174.36 328.62 196.15 339.52 217.95 361.31 261.54 383.11 217.95 394 196.15 404.9 174.36 383.11 130.77 361.31 130.77 350.42 152.56 339.52 174.36 328.62 152.56 339.52 130.77 344.97 119.87 350.42 108.97 361.31 87.18 339.52 87.18 306.83 21.79 317.72 0 230.54 0 263.24 65.38 274.13 87.18 274.13 87.18 295.93 130.77"/>
  <path class="cls-2" d="M282.61,152.56l-10.9-21.79h-43.59,0s43.59,0,43.59,0l-21.79-43.59-10.9-21.79-10.9-21.79h-43.59l-10.9,21.79-10.9,21.79h0s10.9,21.8,10.9,21.8l10.9,21.79,10.9,21.79-10.34,20.68-33.25-66.5-33.81,67.62,44.71,89.42,33.25-66.5,10.34,20.68,10.9-21.79,10.9,21.79,10.9,21.79,10.9,21.79,10.9-21.79,10.9-21.79,10.9-21.79,10.9-21.79-10.9-21.79ZM162.74,259.3l-42.47-84.94,31.57-63.15,42.47,84.94-31.57,63.15ZM186.32,129.87l-10.9-21.79-10.45-20.9,10.45-20.9,10.34-20.69h41.12l10.34,20.69,10.45,20.9-10.45,20.9-10.9,21.79-10.9,21.79-9.11,18.22-9.11-18.22-10.9-21.79ZM206.33,174.36l-10.34,20.68h0s10.34-20.68,10.34-20.68h0,0s0,0,0,0l10.9-21.79-10.9,21.79h0ZM280.82,195.26l-10.9,21.79-10.9,21.79-9.11,18.22-9.11-18.22-10.9-21.79-10.9-21.79-10.45-20.9,10.45-20.9,10.34-20.69h41.12l10.34,20.69,10.45,20.9-10.45,20.9Z"/>
  <g>
    <path class="cls-2" d="M152.78,366.55c12.26,0,21.27,1.91,27.03,5.74,5.76,3.83,8.64,9.93,8.64,18.32,0,3.78-.72,7.24-2.14,10.37-1.43,3.13-3.57,5.74-6.43,7.81-2.86,2.07-6.36,3.48-10.51,4.22v.41c4.79.83,8.83,2.21,12.1,4.15,3.27,1.94,5.74,4.54,7.4,7.81,1.66,3.27,2.49,7.21,2.49,11.82,0,6.36-1.45,11.64-4.36,15.83-2.9,4.2-6.96,7.28-12.17,9.26-5.21,1.98-11.27,2.97-18.18,2.97h-31.11v-98.72h27.24ZM154.72,410.1c9.13,0,15.67-1.57,19.63-4.7,3.96-3.13,5.95-7.79,5.95-13.97s-2.17-10.92-6.5-13.69c-4.33-2.77-11.29-4.15-20.88-4.15h-19.36v36.5h21.16ZM133.57,417.02v41.34h22.54c9.03,0,15.76-1.84,20.19-5.53,4.42-3.69,6.64-9.03,6.64-16.04,0-4.61-1.02-8.37-3.04-11.27-2.03-2.9-5.12-5.05-9.26-6.43-4.15-1.38-9.4-2.07-15.76-2.07h-21.29Z"/>
    <path class="cls-2" d="M396.69,439.69c0,5.9-1.45,10.85-4.36,14.86-2.9,4.01-6.94,7.03-12.1,9.06-5.16,2.03-11.02,3.04-17.56,3.04-4.06,0-7.7-.21-10.92-.62-3.23-.41-6.18-.92-8.85-1.52-2.67-.6-5.07-1.31-7.19-2.14v-8.02c3.5,1.38,7.56,2.61,12.17,3.66,4.61,1.06,9.68,1.59,15.21,1.59,5.07,0,9.52-.74,13.34-2.21,3.82-1.47,6.82-3.64,8.99-6.5,2.16-2.86,3.25-6.45,3.25-10.78,0-3.96-.9-7.19-2.7-9.68s-4.56-4.68-8.3-6.57c-3.73-1.89-8.5-3.8-14.31-5.74-4.15-1.47-7.86-2.99-11.13-4.56-3.27-1.57-6.06-3.41-8.37-5.53-2.31-2.12-4.06-4.61-5.25-7.47-1.2-2.86-1.8-6.31-1.8-10.37,0-5.44,1.38-10,4.15-13.69,2.77-3.69,6.52-6.5,11.27-8.43,4.75-1.94,10.12-2.9,16.11-2.9,4.79,0,9.35.44,13.69,1.31,4.33.88,8.43,2.19,12.31,3.94l-2.63,6.91c-3.87-1.66-7.79-2.9-11.75-3.73-3.96-.83-7.93-1.24-11.89-1.24-4.61,0-8.64.67-12.1,2-3.46,1.34-6.15,3.32-8.09,5.95-1.94,2.63-2.9,5.88-2.9,9.75,0,4.24.92,7.65,2.77,10.23,1.84,2.58,4.52,4.72,8.02,6.43,3.5,1.71,7.79,3.44,12.86,5.19,5.81,2.03,10.81,4.17,15,6.43,4.19,2.26,7.42,5.05,9.68,8.37,2.26,3.32,3.39,7.65,3.39,13Z"/>
    <path class="cls-2" d="M499.84,439.69c0,5.9-1.45,10.85-4.36,14.86s-6.94,7.03-12.1,9.06c-5.16,2.03-11.02,3.04-17.56,3.04-4.06,0-7.7-.21-10.92-.62-3.23-.41-6.18-.92-8.85-1.52-2.67-.6-5.07-1.31-7.19-2.14v-8.02c3.5,1.38,7.56,2.61,12.17,3.66,4.61,1.06,9.68,1.59,15.21,1.59,5.07,0,9.52-.74,13.34-2.21,3.82-1.47,6.82-3.64,8.99-6.5,2.16-2.86,3.25-6.45,3.25-10.78,0-3.96-.9-7.19-2.7-9.68s-4.56-4.68-8.3-6.57c-3.73-1.89-8.5-3.8-14.31-5.74-4.15-1.47-7.86-2.99-11.13-4.56-3.27-1.57-6.06-3.41-8.37-5.53-2.31-2.12-4.06-4.61-5.25-7.47-1.2-2.86-1.8-6.31-1.8-10.37,0-5.44,1.38-10,4.15-13.69,2.77-3.69,6.52-6.5,11.27-8.43,4.75-1.94,10.12-2.9,16.11-2.9,4.79,0,9.35.44,13.69,1.31,4.33.88,8.43,2.19,12.31,3.94l-2.63,6.91c-3.87-1.66-7.79-2.9-11.75-3.73-3.96-.83-7.93-1.24-11.89-1.24-4.61,0-8.64.67-12.1,2-3.46,1.34-6.15,3.32-8.09,5.95s-2.9,5.88-2.9,9.75c0,4.24.92,7.65,2.77,10.23,1.84,2.58,4.52,4.72,8.02,6.43,3.5,1.71,7.79,3.44,12.86,5.19,5.81,2.03,10.81,4.17,15,6.43,4.19,2.26,7.42,5.05,9.68,8.37,2.26,3.32,3.39,7.65,3.39,13Z"/>
    <path class="cls-2" d="M46.04,366.27h-7.19L0,465.27h8.16l13.27-34.01,2.77-7.19,13.55-35.54c.46-1.2.94-2.53,1.45-4.01.51-1.47,1.01-3.04,1.52-4.7.51-1.66.99-3.27,1.45-4.84.55,1.38,1.11,2.95,1.66,4.7.55,1.75,1.11,3.41,1.66,4.98.55,1.57.97,2.81,1.24,3.73l13.27,35.67,2.49,7.19,13.14,34.01h8.3l-37.89-99Z"/>
    <path class="cls-2" d="M300.59,366.55l-33.36,61.2h-7.26l-33.36-61.2h7.77l23.94,44.14c.76,1.37,1.46,2.7,2.1,3.99.64,1.29,1.23,2.53,1.78,3.73.55,1.2,1.04,2.37,1.46,3.51.42-1.14.89-2.3,1.4-3.47.51-1.17,1.08-2.4,1.72-3.69s1.34-2.67,2.1-4.16l23.94-44.06h7.77Z"/>
    <rect class="cls-2" x="259.8" y="457.39" width="7.89" height="7.89" rx="3.26" ry="3.26"/>
    <rect class="cls-2" x="259.66" y="441.61" width="7.89" height="7.89" rx="3.26" ry="3.26"/>
  </g>
</svg>